<?xml version="1.0" standalone="no"?>
<!DOCTYPE svg PUBLIC "-//W3C//DTD SVG 20010904//EN"
 "http://www.w3.org/TR/2001/REC-SVG-20010904/DTD/svg10.dtd">
<svg version="1.0" xmlns="http://www.w3.org/2000/svg"
 width="277.000000pt" height="277.000000pt" viewBox="0 0 277.000000 277.000000"
 preserveAspectRatio="xMidYMid meet">
<metadata>
Created by potrace 1.14, written by Peter Selinger 2001-2017
</metadata>
<g transform="translate(0.000000,277.000000) scale(0.100000,-0.100000)"
fill="#000000" stroke="none">
<path d="M290 2755 c-121 -38 -229 -142 -268 -258 -21 -61 -21 -71 -19 -1127
l2 -1065 28 -59 c37 -79 89 -141 153 -182 104 -66 61 -64 1190 -64 640 0 1041
4 1074 10 144 27 259 135 305 287 13 41 14 201 12 1103 -1 580 -5 1065 -9
1078 -31 104 -121 206 -225 255 l-68 32 -1065 2 c-888 1 -1072 -1 -1110 -12z"/>
</g>
</svg>
